PathFileType	4	(X/Y/Z)	 normalP04.trc
DataRate	CameraRate	NumFrames	NumMarkers	Units	OrigDataRate	OrigDataStartFrame	OrigNumFrames
100	100	8	49	M	100	233	243
Frame#	Time	RM1D			RM5D			RM2B			LM1D			LM5D			LM2B			RCAL			LCAL			RLMAL			LLMAL			RSTL			LSTL			RFLE			LFLE			RHFIB			LHFIB			RTTUB			LTTUB			RSSH			LSSH			RTL			LTL			RTAP			RTAD			LTAP			LTAD			RTPP			RTPD			LTPP			LTPD			RPSIS			LPSIS			RASIS			LASIS			T10			T2			IJ			SA			RACR			LACR			RHLE			LHLE			RUSP			LUSP			RCB			LCB			IN			LHME			RHME			
		X1	Y1	Z1	X2	Y2	Z2	X3	Y3	Z3	X4	Y4	Z4	X5	Y5	Z5	X6	Y6	Z6	X7	Y7	Z7	X8	Y8	Z8	X9	Y9	Z9	X10	Y10	Z10	X11	Y11	Z11	X12	Y12	Z12	X13	Y13	Z13	X14	Y14	Z14	X15	Y15	Z15	X16	Y16	Z16	X17	Y17	Z17	X18	Y18	Z18	X19	Y19	Z19	X20	Y20	Z20	X21	Y21	Z21	X22	Y22	Z22	X23	Y23	Z23	X24	Y24	Z24	X25	Y25	Z25	X26	Y26	Z26	X27	Y27	Z27	X28	Y28	Z28	X29	Y29	Z29	X30	Y30	Z30	X31	Y31	Z31	X32	Y32	Z32	X33	Y33	Z33	X34	Y34	Z34	X35	Y35	Z35	X36	Y36	Z36	X37	Y37	Z37	X38	Y38	Z38	X39	Y39	Z39	X40	Y40	Z40	X41	Y41	Z41	X42	Y42	Z42	X43	Y43	Z43	X44	Y44	Z44	X45	Y45	Z45	X46	Y46	Z46	X47	Y47	Z47	X48	Y48	Z48	X49	Y49	Z49	
233	2.3300	1.104578	0.040843	-0.272138	1.057324	0.026934	-0.198123	1.060353	0.056247	-0.238162	1.475249	0.070149	-0.345368	1.436206	0.041639	-0.413607	1.431460	0.081426	-0.368071	0.907160	0.068070	-0.283271	1.282152	0.054584	-0.330453	0.958131	0.083999	-0.226867	1.326261	0.084499	-0.388341	0.967706	0.052574	-0.309442	1.346089	0.057306	-0.309962	1.111304	0.473970	-0.177977	1.346224	0.499878	-0.406373	1.087125	0.426335	-0.182221	1.343118	0.440994	-0.408613	1.109573	0.398607	-0.234501	1.375932	0.430807	-0.356405	1.081321	0.312933	-0.247935	1.369579	0.196222	-0.349517	1.137992	0.663909	-0.126656	1.321740	0.801518	-0.367886	1.250105	0.717945	-0.179692	1.213051	0.590594	-0.199251	1.268703	0.703910	-0.449729	1.361439	0.698316	-0.358365	1.035152	0.706120	-0.203728	1.026483	0.612594	-0.221151	1.160373	0.658025	-0.394415	1.204836	0.572524	-0.377356	1.071713	0.991092	-0.242140	1.070947	0.987272	-0.323371	1.257695	0.941995	-0.148516	1.259706	0.952847	-0.384532	1.062161	1.175821	-0.269564	1.103690	1.413866	-0.279717	1.242424	1.371865	-0.277341	1.269068	1.315152	-0.281067	1.183258	1.410281	-0.097814	1.176384	1.403280	-0.457020	1.221423	1.095201	-0.010577	1.099129	1.087529	-0.503141	1.430693	0.949871	-0.039410	1.144587	0.844786	-0.549498	1.276453	1.560735	-0.207647	1.285731	1.562493	-0.329028	1.133649	1.457382	-0.283249	1.085320	1.078528	-0.425458	1.191047	1.076583	-0.081774	
234	2.3400	1.104397	0.040593	-0.272413	1.057088	0.026982	-0.198354	1.060675	0.056455	-0.238237	1.513482	0.077371	-0.343062	1.477479	0.045791	-0.411626	1.469667	0.085130	-0.366618	0.907772	0.070354	-0.283531	1.321533	0.049160	-0.330483	0.959029	0.085528	-0.227107	1.364271	0.082204	-0.387939	0.968079	0.053907	-0.309678	1.385412	0.056618	-0.309272	1.118242	0.473296	-0.178254	1.356044	0.496372	-0.405170	1.093218	0.425913	-0.182572	1.355100	0.438805	-0.407833	1.116391	0.398419	-0.234396	1.390252	0.429216	-0.355808	1.085673	0.312566	-0.248303	1.399270	0.196329	-0.349870	1.147226	0.662635	-0.126656	1.334790	0.797985	-0.367083	1.260195	0.716584	-0.180101	1.221452	0.589114	-0.200266	1.280897	0.700954	-0.449105	1.372789	0.693873	-0.356980	1.044485	0.706830	-0.204176	1.035173	0.613057	-0.221939	1.172062	0.656221	-0.393684	1.213647	0.570477	-0.375926	1.085025	0.989245	-0.242960	1.084522	0.985022	-0.324145	1.270680	0.940362	-0.148529	1.273845	0.950860	-0.384047	1.075008	1.173968	-0.269804	1.116865	1.411930	-0.279715	1.255684	1.369836	-0.277259	1.282274	1.313076	-0.280996	1.196708	1.408701	-0.097954	1.189469	1.401120	-0.457027	1.237094	1.093999	-0.010356	1.108047	1.086326	-0.502645	1.451033	0.955950	-0.041191	1.146016	0.843036	-0.550684	1.289636	1.558906	-0.207665	1.299004	1.560513	-0.329032	1.146919	1.455266	-0.283202	1.095332	1.077369	-0.424681	1.207300	1.075117	-0.083302	
235	2.3500	1.104822	0.040708	-0.272166	1.056954	0.027013	-0.198424	1.061051	0.056667	-0.238171	1.549034	0.085567	-0.340943	1.515909	0.051675	-0.409800	1.505276	0.090267	-0.364994	0.908628	0.072959	-0.283208	1.358584	0.046056	-0.330681	0.960060	0.087241	-0.227005	1.399961	0.081763	-0.387495	0.968520	0.055485	-0.309627	1.421499	0.056514	-0.309540	1.124766	0.472494	-0.178657	1.365717	0.492409	-0.403910	1.099710	0.425504	-0.182646	1.366711	0.436289	-0.407050	1.123207	0.398008	-0.234140	1.404173	0.428079	-0.355229	1.090316	0.312171	-0.248417	1.427569	0.197817	-0.350230	1.156463	0.661634	-0.126348	1.348037	0.793825	-0.366543	1.270639	0.714652	-0.180112	1.230243	0.587549	-0.200886	1.292495	0.697402	-0.448524	1.383857	0.688634	-0.355948	1.054547	0.707521	-0.204739	1.044423	0.613630	-0.222645	1.182963	0.654644	-0.392667	1.222547	0.568034	-0.373892	1.098474	0.987289	-0.244033	1.098302	0.982644	-0.325087	1.284211	0.938991	-0.148790	1.288136	0.948817	-0.383636	1.087980	1.171997	-0.270259	1.130099	1.409893	-0.279752	1.269012	1.367763	-0.277229	1.295556	1.310991	-0.280998	1.210198	1.407036	-0.098162	1.202667	1.399005	-0.457126	1.252479	1.092711	-0.010173	1.116915	1.085268	-0.502386	1.470601	0.961883	-0.043356	1.148298	0.841622	-0.551767	1.302888	1.556979	-0.207746	1.312339	1.558509	-0.329125	1.160368	1.453074	-0.283269	1.106258	1.075930	-0.421229	1.222973	1.073692	-0.083559	
236	2.3600	1.104927	0.040684	-0.272084	1.056935	0.026994	-0.198390	1.060864	0.056309	-0.238499	1.581175	0.093821	-0.339210	1.550219	0.058357	-0.408163	1.537864	0.096231	-0.363137	0.909469	0.075853	-0.282642	1.393207	0.043914	-0.331809	0.961294	0.089210	-0.226543	1.434166	0.083364	-0.387530	0.968945	0.057441	-0.309239	1.455323	0.058044	-0.308567	1.132521	0.471777	-0.178451	1.375936	0.488493	-0.402777	1.106716	0.425080	-0.182483	1.379143	0.434127	-0.406022	1.130291	0.397421	-0.233694	1.417980	0.427804	-0.354279	1.095447	0.311830	-0.248174	1.453985	0.200162	-0.350137	1.165616	0.660620	-0.125500	1.361325	0.788816	-0.366283	1.281561	0.712652	-0.179837	1.239705	0.585911	-0.200718	1.306125	0.693937	-0.447702	1.394632	0.682637	-0.355139	1.065641	0.708111	-0.205449	1.054337	0.614236	-0.223210	1.193209	0.653508	-0.391600	1.232322	0.565370	-0.371722	1.111933	0.985363	-0.245424	1.112250	0.980246	-0.326395	1.293739	0.934812	-0.146405	1.302574	0.946706	-0.383285	1.101047	1.170037	-0.270691	1.143431	1.407805	-0.279970	1.282433	1.365665	-0.277279	1.308959	1.308925	-0.281072	1.223710	1.405286	-0.098424	1.215979	1.396922	-0.457324	1.267667	1.091375	-0.010039	1.125774	1.084373	-0.502325	1.489489	0.967533	-0.045150	1.151508	0.840521	-0.552732	1.316206	1.554980	-0.207898	1.325713	1.556482	-0.329298	1.173739	1.450906	-0.283434	1.115880	1.075019	-0.420966	1.238417	1.072167	-0.083800	
237	2.3700	1.105253	0.040712	-0.271609	1.057023	0.026951	-0.198282	1.062004	0.056912	-0.237745	1.610223	0.101274	-0.337414	1.580913	0.064866	-0.406379	1.566956	0.101947	-0.360905	0.910433	0.079042	-0.281715	1.424259	0.043509	-0.330446	0.962750	0.091374	-0.225801	1.463632	0.084712	-0.386037	0.968848	0.059290	-0.307869	1.485672	0.060122	-0.306869	1.140897	0.471028	-0.177955	1.387067	0.485088	-0.402008	1.114350	0.424727	-0.182036	1.392290	0.432464	-0.404915	1.137609	0.396575	-0.233169	1.431862	0.428162	-0.352537	1.100989	0.311508	-0.247688	1.478167	0.202746	-0.349070	1.175932	0.659821	-0.124897	1.374646	0.783239	-0.366241	1.292932	0.710657	-0.179045	1.249820	0.584170	-0.199727	1.316116	0.689584	-0.448349	1.405209	0.676185	-0.354799	1.077515	0.708615	-0.206319	1.064946	0.614742	-0.223663	1.203491	0.652628	-0.390833	1.243272	0.563005	-0.371107	1.125819	0.983396	-0.247012	1.126375	0.977865	-0.327909	1.307570	0.933711	-0.146438	1.317020	0.944504	-0.383054	1.114310	1.168025	-0.271244	1.156815	1.405739	-0.280224	1.295947	1.363651	-0.277389	1.322444	1.306899	-0.281195	1.237179	1.403487	-0.098722	1.229390	1.394934	-0.457535	1.282486	1.089962	-0.009958	1.134641	1.083695	-0.502467	1.507679	0.972888	-0.046947	1.155676	0.839614	-0.553521	1.329544	1.552951	-0.208093	1.339151	1.554453	-0.329523	1.187131	1.448702	-0.283680	1.125370	1.074192	-0.421111	1.253541	1.070610	-0.083979	
238	2.3800	1.105801	0.040785	-0.270785	1.057219	0.026889	-0.198062	1.062969	0.057295	-0.237020	1.635871	0.107179	-0.335321	1.607368	0.069763	-0.404214	1.592493	0.106452	-0.358444	0.911711	0.082747	-0.280519	1.451443	0.043627	-0.328417	0.964432	0.093841	-0.224736	1.489459	0.086024	-0.384203	0.969514	0.061948	-0.306974	1.512275	0.062180	-0.304671	1.149856	0.470261	-0.177137	1.399089	0.482434	-0.401465	1.122654	0.424328	-0.181323	1.406729	0.431612	-0.403528	1.145517	0.395668	-0.232358	1.445776	0.428629	-0.350396	1.107028	0.311219	-0.246958	1.499936	0.204946	-0.346856	1.186809	0.658866	-0.124281	1.388066	0.777196	-0.366455	1.304653	0.708603	-0.177604	1.260474	0.582333	-0.198016	1.321977	0.684247	-0.451702	1.415594	0.669504	-0.354868	1.090345	0.708852	-0.207329	1.076270	0.615146	-0.224023	1.216244	0.652616	-0.388537	1.256096	0.561351	-0.371317	1.139979	0.981486	-0.248748	1.140635	0.975581	-0.329598	1.321220	0.932418	-0.146184	1.331498	0.942230	-0.382903	1.127721	1.166085	-0.271836	1.170335	1.403726	-0.280577	1.309525	1.361669	-0.277582	1.336054	1.304975	-0.281409	1.250642	1.401682	-0.099041	1.242929	1.393036	-0.457808	1.296956	1.088519	-0.009907	1.143747	1.083149	-0.502807	1.525158	0.977916	-0.048666	1.160774	0.838909	-0.554212	1.343001	1.550958	-0.208347	1.352633	1.552472	-0.329839	1.200693	1.446512	-0.284062	1.134199	1.073760	-0.421445	1.268318	1.068930	-0.084051	
239	2.3900	1.104611	0.040154	-0.272243	1.057335	0.026803	-0.197589	1.063916	0.057564	-0.236272	1.657850	0.111029	-0.332447	1.630095	0.072773	-0.401479	1.614467	0.109252	-0.355565	0.913139	0.086875	-0.279065	1.474535	0.043622	-0.326459	0.966402	0.096645	-0.223283	1.511640	0.086781	-0.382271	0.970464	0.065088	-0.305891	1.534808	0.063574	-0.302253	1.159505	0.469494	-0.176062	1.412308	0.480559	-0.400639	1.131629	0.423862	-0.180336	1.425274	0.431896	-0.401612	1.154041	0.394680	-0.231238	1.459674	0.428773	-0.348211	1.113538	0.310930	-0.245964	1.519210	0.206356	-0.343921	1.198077	0.657901	-0.123654	1.401474	0.771335	-0.366944	1.316812	0.706528	-0.175587	1.271541	0.580448	-0.195780	1.332707	0.681399	-0.454102	1.426038	0.663185	-0.355444	1.103785	0.708739	-0.208585	1.088394	0.615321	-0.224420	1.229448	0.651397	-0.388263	1.270320	0.559584	-0.372859	1.154002	0.979758	-0.250489	1.154997	0.973503	-0.331318	1.334787	0.930846	-0.145550	1.345929	0.939865	-0.382787	1.141435	1.164139	-0.272389	1.183893	1.401846	-0.281009	1.323199	1.359838	-0.277831	1.349781	1.303208	-0.281629	1.264124	1.399846	-0.099420	1.256591	1.391309	-0.458149	1.311171	1.087018	-0.009912	1.153167	1.082840	-0.503307	1.541958	0.982514	-0.050310	1.166674	0.838374	-0.554771	1.356489	1.549137	-0.208649	1.366179	1.550612	-0.330195	1.214476	1.444391	-0.284567	1.143228	1.073370	-0.422216	1.282757	1.067212	-0.084144	
240	2.4000	1.104665	0.040098	-0.271954	1.057793	0.026814	-0.197157	1.065000	0.057786	-0.235393	1.676007	0.112461	-0.328351	1.650106	0.074093	-0.397346	1.632972	0.110100	-0.352212	0.915066	0.091537	-0.277329	1.493313	0.043061	-0.325053	0.968559	0.099755	-0.221776	1.530532	0.086661	-0.380365	0.971640	0.068568	-0.304501	1.553005	0.063462	-0.300236	1.169803	0.468739	-0.174748	1.427339	0.479113	-0.399455	1.141178	0.423390	-0.179107	1.440401	0.430971	-0.400012	1.163139	0.393597	-0.229848	1.473568	0.428439	-0.345929	1.120634	0.310644	-0.244609	1.535973	0.206687	-0.341060	1.209643	0.657105	-0.122991	1.410987	0.764374	-0.368058	1.329374	0.704447	-0.173361	1.283195	0.578616	-0.193140	1.344275	0.679089	-0.455004	1.436971	0.658970	-0.356125	1.117510	0.708139	-0.209908	1.101075	0.615304	-0.224996	1.244094	0.649661	-0.388243	1.286360	0.557558	-0.374013	1.168350	0.978015	-0.252143	1.169546	0.971611	-0.332960	1.348743	0.929620	-0.145163	1.360363	0.937562	-0.382679	1.155419	1.162208	-0.273066	1.197480	1.400023	-0.281473	1.336976	1.358154	-0.278180	1.363636	1.301608	-0.281896	1.275622	1.398579	-0.100111	1.270366	1.389738	-0.458568	1.325016	1.085448	-0.009954	1.162987	1.082686	-0.503898	1.558013	0.986775	-0.051903	1.173224	0.837982	-0.555273	1.369994	1.547566	-0.209055	1.379738	1.548939	-0.330609	1.228045	1.442519	-0.285086	1.151174	1.073704	-0.426057	1.296977	1.065405	-0.084330	
